<?xml version="1.0" standalone="no"?>
<!DOCTYPE svg PUBLIC "-//W3C//DTD SVG 20010904//EN"
 "http://www.w3.org/TR/2001/REC-SVG-20010904/DTD/svg10.dtd">
<svg version="1.0" xmlns="http://www.w3.org/2000/svg"
 width="736.000000pt" height="414.000000pt" viewBox="0 0 736.000000 414.000000"
 preserveAspectRatio="xMidYMid meet">

<g transform="translate(0.000000,414.000000) scale(0.100000,-0.100000)"
fill="#000000" stroke="none">
<path d="M0 3168 l0 -973 442 -110 c279 -69 443 -115 446 -123 3 -11 0 -11
-14 -3 -11 6 -203 56 -429 112 -226 55 -418 103 -428 105 -16 5 -17 -51 -17
-1085 l0 -1091 3680 0 3680 0 0 424 c0 396 -1 425 -17 429 -17 4 -17 5 0 6 16
1 17 86 17 1641 l0 1640 -1400 0 c-1229 0 -1400 -2 -1400 -15 0 -8 6 -15 14
-15 8 0 16 -7 20 -15 3 -8 17 -15 31 -15 14 0 25 -4 25 -10 0 -6 -139 -10
-396 -10 l-396 0 4 40 4 40 -83 0 -83 0 0 -40 0 -40 -760 0 -760 0 0 38 0 37
-118 0 c-115 0 -117 0 -115 -22 3 -22 0 -23 -92 -23 -78 0 -95 3 -95 15 0 11
-14 16 -57 17 -32 1 7 5 87 8 l145 6 -162 2 c-138 2 -162 0 -157 -12 3 -8 -2
-41 -11 -73 -10 -32 -19 -67 -21 -78 -2 -11 -10 -44 -17 -72 -8 -29 -12 -55
-9 -58 3 -3 27 -5 54 -5 l48 0 0 -161 c0 -148 -1 -160 -17 -155 -41 12 -176
11 -181 -2 -2 -6 4 -12 12 -12 9 0 45 -14 79 -31 67 -33 68 -25 2 10 l-40 21
73 0 72 0 0 -36 c0 -32 -2 -35 -22 -30 l-23 6 23 -11 22 -12 0 -319 0 -319
-72 3 c-52 2 -72 7 -70 16 2 14 -34 16 -43 2 -3 -5 -13 -10 -21 -10 -8 0 -12
5 -9 10 4 6 1 18 -6 26 -11 13 -25 15 -71 10 -54 -7 -58 -6 -63 16 -3 13 -1
36 4 51 9 22 8 29 -3 33 -30 12 -55 -17 -86 -98 -61 -159 -120 -289 -151 -336
-88 -129 -179 -235 -238 -274 l-46 -31 31 34 c45 49 86 124 90 167 3 20 6 45
8 55 6 24 -1 22 -58 -21 -28 -22 -65 -46 -83 -55 -17 -9 -37 -22 -45 -30 -14
-14 -118 -60 -123 -55 -2 2 33 26 77 53 82 51 230 192 280 267 15 22 37 65 49
96 26 72 89 285 90 309 0 10 3 13 5 6 3 -6 -6 -67 -20 -134 -29 -137 -30 -153
-16 -144 5 3 10 17 10 31 0 14 4 23 9 19 12 -7 53 44 45 56 -3 5 6 24 20 41
27 36 53 102 90 224 13 43 38 117 56 164 41 110 124 428 155 599 14 74 27 136
30 139 15 16 -8 -131 -45 -283 -11 -44 -27 -114 -36 -155 -17 -81 -17 -83 -33
-150 -12 -51 -13 -66 -6 -58 8 7 165 473 180 533 7 28 20 76 29 107 9 32 18
71 21 88 l5 30 -800 0 -800 0 0 -972z m1557 920 c-3 -7 -5 -2 -5 12 0 14 2 19
5 13 2 -7 2 -19 0 -25z m98 12 c3 -5 1 -10 -4 -10 -6 0 -11 5 -11 10 0 6 2 10
4 10 3 0 8 -4 11 -10z m3365 -20 c0 -5 -4 -10 -9 -10 -6 0 -13 5 -16 10 -3 6
1 10 9 10 9 0 16 -4 16 -10z m-1175 -10 c3 -5 1 -10 -4 -10 -6 0 -11 5 -11 10
0 6 2 10 4 10 3 0 8 -4 11 -10z m-1895 -390 l0 -160 -112 -2 -113 -2 112 -3
112 -4 0 -362 1 -362 -117 2 c-65 1 -117 5 -115 8 1 3 2 239 2 525 l0 520 115
0 115 0 0 -160z m1744 -262 c4 -227 6 -608 4 -845 l-3 -433 -170 -1 c-93 0
-179 -4 -190 -9 -18 -8 -18 -9 5 -10 14 -1 31 -3 39 -4 22 -2 25 -26 4 -26
-16 0 -18 -10 -20 -103 -1 -56 -2 -133 -3 -172 l-2 -70 -10 45 c-10 41 -12 43
-20 23 -8 -17 -25 -24 -82 -34 -39 -6 -74 -16 -78 -22 -3 -6 -9 5 -13 24 l-6
35 -62 -7 c-34 -3 -64 -4 -66 -2 -2 1 1 3 7 3 7 0 12 7 12 15 0 10 -14 17 -41
21 -29 5 -43 13 -47 26 -3 13 -10 17 -24 12 -10 -3 -25 0 -33 6 -8 6 -24 10
-37 8 -13 -2 -28 3 -34 10 -5 8 -22 15 -37 15 -20 2 -29 9 -37 31 -7 21 -13
26 -22 19 -14 -11 -117 -11 -134 0 -7 4 -14 -2 -17 -14 -5 -19 -10 -21 -49
-15 -23 4 -44 9 -46 10 -9 9 -1 481 8 484 19 7 11 42 -10 42 -19 0 -20 -8 -22
-267 -2 -202 -6 -267 -15 -271 -7 -2 -13 3 -13 11 0 17 -29 27 -79 27 -48 0
-30 13 27 20 40 4 47 8 44 25 -2 11 -7 23 -11 28 -15 15 -210 10 -222 -6 -1
-1 -5 -76 -8 -167 -4 -91 -6 196 -6 638 1 694 3 804 15 812 13 8 12 10 -2 10
-16 0 -18 11 -18 80 l0 80 135 0 c109 0 135 -3 135 -14 0 -8 6 -16 13 -18 20
-8 37 2 37 23 0 18 -9 19 -160 19 l-160 0 0 153 c0 85 3 157 7 160 3 4 345 7
758 7 l753 0 6 -412z m167 377 l4 30 160 3 c167 3 204 -1 172 -19 -17 -10 -16
-12 7 -30 13 -10 31 -19 40 -19 9 0 16 -4 16 -10 0 -6 -20 -8 -48 -5 -42 4
-52 2 -72 -20 l-23 -25 36 0 c20 0 37 -5 37 -10 0 -15 64 -5 94 15 14 10 23
21 20 26 -3 5 0 9 5 9 6 0 11 -4 11 -10 0 -6 9 -6 26 1 24 8 31 6 58 -24 17
-19 47 -42 66 -52 51 -26 101 -65 95 -75 -3 -4 13 -11 34 -15 22 -4 45 -13 52
-21 6 -8 20 -14 30 -14 26 0 24 -17 -3 -26 -13 -4 -26 -11 -30 -17 -8 -14 41
-40 61 -32 8 3 17 1 21 -4 3 -6 27 0 58 16 46 23 56 24 80 14 26 -12 26 -13
-38 -41 -36 -16 -75 -38 -87 -48 -13 -11 -36 -26 -52 -33 -16 -7 -35 -24 -40
-37 -14 -30 -14 -32 3 -32 9 0 17 -16 22 -42 4 -24 9 -37 11 -30 3 6 13 12 22
12 10 0 23 11 29 24 9 21 8 26 -10 38 -54 36 15 96 164 142 49 15 90 32 94 37
3 5 22 9 42 9 25 0 43 7 55 20 16 19 27 20 130 18 89 -2 111 -6 109 -17 -2 -9
4 -12 18 -8 13 3 20 0 20 -8 0 -8 7 -15 15 -17 12 -2 10 -9 -10 -32 -21 -24
-27 -27 -40 -16 -9 8 -15 8 -15 2 0 -6 5 -14 10 -17 19 -12 10 -24 -19 -23
-37 1 -90 -30 -71 -42 12 -8 11 -38 -5 -87 -6 -19 -4 -23 12 -23 11 0 31 8 44
19 25 19 79 26 79 9 0 -5 15 0 34 11 18 12 36 21 40 21 8 0 8 -74 0 -134 -6
-38 -10 -45 -24 -41 -9 3 -37 -6 -61 -20 -24 -13 -50 -25 -57 -25 -7 0 -24 -7
-37 -16 -21 -14 -23 -18 -10 -30 8 -8 18 -14 22 -13 21 4 33 -2 33 -16 0 -8
-4 -15 -10 -15 -5 0 -10 -5 -10 -12 0 -7 6 -6 18 4 30 26 132 56 132 39 0 -5
-12 -12 -27 -15 -49 -12 -83 -28 -83 -41 0 -17 -45 -39 -65 -31 -12 4 -16 1
-13 -11 2 -11 15 -20 33 -23 23 -4 30 -11 31 -28 2 -32 11 -38 32 -18 11 9 26
14 34 11 9 -4 23 1 32 11 9 9 19 14 22 11 3 -2 7 -87 9 -188 3 -190 1 -208
-37 -222 -10 -3 -18 -13 -18 -22 0 -8 -8 -15 -17 -15 -15 0 -16 2 -3 10 8 5
11 12 7 16 -4 4 -13 2 -19 -4 -13 -13 -48 -16 -49 -4 -5 48 -3 65 10 72 13 7
11 12 -9 29 -14 11 -30 20 -36 21 -6 0 -21 9 -33 19 -23 20 -58 18 -77 -5 -11
-13 -54 -9 -54 6 0 10 -40 23 -64 20 -16 -1 -14 3 10 23 l29 25 -28 13 c-15 7
-27 18 -27 25 0 9 -9 12 -29 8 -32 -7 -48 15 -32 44 12 21 -10 42 -46 42 -39
0 -55 -13 -55 -44 0 -23 -5 -26 -34 -26 -35 0 -46 10 -48 44 -1 14 -9 22 -26
24 -13 2 -46 13 -72 23 -57 22 -91 24 -110 6 -22 -22 -98 -69 -173 -107 -65
-33 -70 -37 -67 -65 2 -16 5 -32 8 -34 8 -9 32 21 27 35 -8 21 44 14 64 -8 15
-17 15 -18 0 -18 -10 0 -14 -5 -11 -15 4 -9 0 -15 -10 -15 -9 0 -16 -4 -16 -9
0 -15 -59 -41 -66 -30 -3 5 -15 7 -26 3 -11 -3 -35 -6 -53 -6 -25 0 -32 -4
-28 -14 7 -18 -11 -18 -26 0 -8 10 -9 16 -1 21 19 12 10 21 -32 32 -37 10 -47
9 -76 -8 -18 -10 -43 -19 -55 -19 -22 -1 -57 -21 -57 -34 0 -3 17 -14 37 -23
40 -20 47 -31 34 -52 -8 -12 -12 -12 -25 -2 -12 10 -18 9 -35 -8 -12 -12 -21
-27 -21 -33 0 -7 -9 -24 -20 -38 -11 -14 -20 -28 -20 -31 0 -4 19 -14 42 -24
24 -9 45 -21 49 -26 3 -5 27 -11 54 -14 31 -3 57 -13 71 -26 29 -27 24 -35
-23 -42 -80 -11 -126 -25 -146 -45 l-20 -21 31 -29 c36 -34 41 -52 13 -52 -10
0 -22 -7 -25 -16 -3 -8 -11 -12 -17 -9 -5 4 -19 -1 -30 -11 -17 -15 -24 -16
-39 -6 -11 7 -21 12 -22 12 -2 0 -4 -116 -4 -258 -1 -141 -3 -340 -5 -442 -4
-240 -16 1117 -17 1900 0 507 2 599 13 570 l13 -35 3 30z m520 25 c32 0 39
-14 12 -24 -10 -3 -23 -8 -29 -11 -6 -3 -19 6 -29 21 -16 25 -16 27 0 21 9 -4
30 -7 46 -7z m152 3 c4 -3 2 -12 -4 -20 -9 -9 -8 -13 0 -13 22 0 11 -17 -20
-31 -33 -15 -37 -36 -7 -31 12 2 16 -1 12 -12 -3 -8 3 -19 15 -26 29 -15 64 4
56 31 -7 21 2 24 24 10 12 -8 12 -13 -3 -35 l-17 -27 28 7 c15 3 39 9 53 14
14 5 37 11 53 14 15 4 27 11 27 16 0 13 -17 13 -25 0 -11 -18 -27 -10 -22 11
5 19 3 21 -24 15 -49 -10 -30 17 24 33 26 8 47 20 47 28 0 7 7 13 15 13 8 0
15 -4 15 -10 0 -15 21 -12 34 6 9 12 17 13 39 5 15 -6 27 -15 27 -21 0 -13 12
-13 47 2 15 6 44 12 63 13 19 2 66 5 104 9 85 8 182 -2 201 -20 18 -18 29 -18
21 1 -3 8 -1 15 3 15 12 0 90 -206 80 -212 -2 -2 -18 -13 -35 -24 -20 -15 -39
-20 -57 -17 -28 5 -35 17 -17 28 6 3 10 10 10 16 0 15 -27 10 -46 -8 -15 -16
-17 -16 -30 2 -8 10 -14 27 -14 38 0 12 -6 17 -17 16 -10 -2 -28 3 -41 10 -30
16 -87 7 -157 -25 -75 -34 -77 -50 -9 -64 29 -6 54 -17 54 -23 0 -26 -38 -36
-117 -31 -114 7 -137 12 -151 34 -12 19 -11 20 14 14 20 -5 25 -4 19 5 -5 8
-19 11 -39 7 -25 -5 -51 2 -107 27 -41 19 -103 42 -139 51 -38 11 -77 29 -92
44 -28 26 -36 56 -18 67 6 3 10 15 10 25 0 11 9 20 23 23 37 7 83 7 90 0z
m112 -13 c-3 -5 -10 -10 -16 -10 -5 0 -9 5 -9 10 0 6 7 10 16 10 8 0 12 -4 9
-10z m853 -83 c16 -61 17 -75 6 -66 -8 6 -14 25 -14 41 0 16 -4 37 -9 46 -14
28 -24 78 -12 67 5 -5 18 -45 29 -88z m-1308 -7 c0 -5 -12 -10 -27 -10 -22 0
-25 2 -13 10 20 13 40 13 40 0z m1350 -255 c39 -166 120 -411 185 -560 7 -16
18 -49 24 -72 6 -23 35 -73 64 -111 50 -68 70 -86 47 -43 -16 31 5 26 29 -6
16 -22 20 -24 21 -10 0 39 38 -4 83 -96 51 -101 58 -126 27 -88 -44 52 -5 -44
50 -124 16 -22 47 -60 70 -85 23 -25 48 -56 55 -70 7 -14 48 -60 91 -102 167
-162 197 -183 257 -175 23 3 62 2 87 -2 35 -6 23 -7 -53 -8 -97 -1 -98 -1
-140 33 -23 19 -61 48 -84 66 -24 18 -43 35 -43 38 0 3 -40 48 -90 99 -49 51
-90 88 -90 82 0 -7 -9 -9 -24 -5 -23 6 -86 -19 -86 -34 0 -4 9 -16 21 -25 17
-15 18 -21 8 -33 -21 -25 -39 -12 -63 46 -13 30 -36 85 -51 122 -16 38 -25 71
-22 75 4 3 22 6 40 6 l34 0 -17 44 c-19 50 -128 210 -149 218 -24 9 -36 -12
-17 -30 13 -13 14 -20 5 -31 -9 -11 -9 -17 0 -28 7 -9 8 -17 2 -20 -13 -9 -8
-32 14 -56 10 -11 20 -31 21 -43 4 -41 -17 -152 -32 -169 -10 -10 -13 -25 -9
-37 6 -19 2 -21 -29 -21 -38 0 -44 -8 -24 -28 19 -19 1 -26 -44 -16 l-43 9 -3
72 c-2 62 0 76 18 95 26 28 26 47 0 23 -20 -18 -20 -17 -20 168 l0 187 49 0
c27 0 51 -5 53 -11 2 -6 12 -10 22 -8 15 4 14 10 -14 64 -38 71 -52 84 -85 77
-24 -4 -25 -3 -25 53 0 50 -10 80 -69 214 -65 148 -90 212 -78 201 3 -3 17
-32 31 -65 17 -38 25 -49 22 -30 l-5 30 14 -30 c8 -16 12 -38 9 -47 -4 -14 59
-158 70 -158 7 0 -25 112 -66 233 -22 64 -44 117 -49 117 -12 0 -12 2 7 -54 9
-26 14 -49 11 -52 -5 -5 -51 137 -62 191 -5 23 -4 26 4 15 8 -11 9 -7 6 20 -2
19 -6 67 -9 105 -5 84 1 68 44 -120z m-380 151 c0 -8 9 -18 20 -21 11 -3 20
-13 20 -20 0 -28 -20 -25 -49 7 -20 23 -26 35 -18 40 18 12 27 9 27 -6z m-10
-61 c0 -8 -7 -15 -16 -15 -14 0 -14 3 -4 15 7 8 14 15 16 15 2 0 4 -7 4 -15z
m314 -112 c10 -32 21 -65 24 -73 3 -8 2 -12 -2 -9 -11 10 -54 139 -47 139 4 0
15 -26 25 -57z m-33 -40 c0 -21 2 -46 4 -56 2 -10 -1 -17 -7 -15 -6 2 -13 14
-15 27 -2 13 -13 31 -26 41 l-22 19 25 10 c38 15 40 14 41 -26z m-51 -43 c24
-21 23 -34 -1 -25 -17 6 -43 45 -31 45 5 0 19 -9 32 -20z m87 -92 c-3 -7 -5
-2 -5 12 0 14 2 19 5 13 2 -7 2 -19 0 -25z m2 -45 c0 -16 -4 -50 -9 -78 -7
-48 -7 -48 -9 28 0 45 3 77 9 77 6 0 10 -12 9 -27z m-38 -156 c-5 -5 -19 -7
-32 -4 l-24 4 23 8 c12 4 22 12 22 19 0 6 5 4 10 -4 5 -8 5 -19 1 -23z m26
-164 c-2 -32 -3 -6 -3 57 0 63 1 89 3 58 2 -32 2 -84 0 -115z m-567 -163 c0
-5 -5 -10 -11 -10 -5 0 -7 5 -4 10 3 6 8 10 11 10 2 0 4 -4 4 -10z m-2940
-239 l0 -179 -30 -12 c-24 -10 -29 -17 -24 -32 5 -17 2 -19 -29 -13 -26 5 -36
3 -40 -9 -8 -20 -27 -21 -27 -1 0 8 6 15 14 15 17 0 29 42 15 50 -5 4 -7 14
-4 23 9 22 -47 51 -64 34 -10 -9 -10 -6 -2 16 12 31 3 37 -69 51 -19 3 -40 10
-46 14 -16 10 -28 52 -15 52 6 0 11 6 11 14 0 8 6 17 13 19 7 3 5 6 -5 6 -21
1 -24 17 -5 24 6 2 9 8 5 12 -3 4 -31 0 -61 -9 -69 -20 -106 -20 -113 -1 -4 8
-21 22 -39 31 -28 13 -32 19 -26 37 6 16 18 23 46 25 45 4 62 -14 38 -40 -9
-10 -14 -21 -10 -24 8 -9 28 6 22 16 -3 5 4 11 15 15 11 3 20 15 20 26 0 18 9
19 205 19 l205 0 0 -179z m4140 107 c0 -6 -6 -5 -15 2 -8 7 -15 14 -15 16 0 2
7 1 15 -2 8 -4 15 -11 15 -16z m80 -19 c0 -6 -4 -7 -10 -4 -5 3 -10 11 -10 16
0 6 5 7 10 4 6 -3 10 -11 10 -16z m-4774 -68 c-22 -21 -46 0 -26 24 10 12 16
13 27 3 12 -10 12 -13 -1 -27z m2731 -28 c-9 -9 -20 -13 -24 -9 -4 4 -1 11 7
16 25 16 35 11 17 -7z m240 -9 c-3 -3 -12 -4 -19 -1 -8 3 -5 6 6 6 11 1 17 -2
13 -5z m1712 -80 c4 3 7 -4 7 -15 0 -19 -1 -18 -18 3 -10 13 -23 32 -29 43 -5
11 0 8 11 -8 12 -15 25 -25 29 -23z m-139 12 c0 -3 -4 -8 -10 -11 -5 -3 -10
-1 -10 4 0 6 5 11 10 11 6 0 10 -2 10 -4z m-4615 -61 c78 -30 129 -55 123 -61
-5 -5 -111 32 -149 51 -17 9 -46 13 -80 10 -46 -4 -48 -3 -16 4 20 4 40 11 44
14 8 9 1 11 78 -18z m2775 5 c0 -5 -9 -10 -21 -10 -11 0 -17 5 -14 10 3 6 13
10 21 10 8 0 14 -4 14 -10z m2018 -25 c-3 -3 -9 2 -12 12 -6 14 -5 15 5 6 7
-7 10 -15 7 -18z m-1365 -1 c9 -10 -4 -34 -18 -34 -17 0 -28 17 -20 30 7 11
28 13 38 4z m1402 -34 c-3 -4 2 -11 11 -14 9 -4 14 -9 10 -13 -7 -7 -46 25
-46 38 0 5 7 6 15 3 8 -4 13 -10 10 -14z m-1047 -8 c2 -7 -3 -12 -12 -12 -9 0
-16 7 -16 16 0 17 22 14 28 -4z m-3011 -59 c-2 -16 -4 -5 -4 22 0 28 2 40 4
28 2 -13 2 -35 0 -50z m2613 25 c0 -14 -27 -9 -41 8 -10 13 -10 17 2 25 13 8
39 -13 39 -33z m1188 20 c14 -14 16 -38 4 -38 -18 0 -45 28 -38 38 9 15 19 15
34 0z m-1430 -17 c27 -23 29 -41 4 -41 -23 0 -56 35 -47 49 9 15 16 13 43 -8z
m661 -10 c19 -12 6 -41 -18 -41 -23 0 -35 15 -27 35 6 17 24 19 45 6z m1081
-1 c0 -5 -2 -10 -4 -10 -3 0 -8 5 -11 10 -3 6 -1 10 4 10 6 0 11 -4 11 -10z
m-4770 -4 c0 -3 -4 -8 -10 -11 -5 -3 -10 -1 -10 4 0 6 5 11 10 11 6 0 10 -2
10 -4z m-665 -46 c-3 -5 -16 -15 -28 -21 -19 -9 -19 -8 3 10 28 23 34 26 25
11z m4158 -10 c29 -28 13 -54 -34 -55 -43 0 -52 30 -18 56 30 23 26 23 52 -1z
m422 -20 c0 -20 -5 -25 -25 -25 -28 0 -41 32 -18 46 23 15 43 5 43 -21z m-250
0 c0 -23 -59 -20 -63 3 -3 15 2 18 30 15 21 -2 33 -8 33 -18z m-3946 -16 c2
-2 -23 -4 -57 -4 -35 0 -62 -4 -62 -10 0 -5 -5 -10 -12 -10 -6 0 -4 8 6 19 15
17 27 19 70 14 28 -3 53 -7 55 -9z m791 -4 c0 -5 -5 -10 -11 -10 -5 0 -7 5 -4
10 3 6 8 10 11 10 2 0 4 -4 4 -10z m-370 -50 c6 -11 9 -20 7 -20 -2 0 -12 9
-22 20 -10 11 -13 20 -7 20 6 0 16 -9 22 -20z m3177 3 c2 -6 -5 -13 -17 -16
-12 -3 -20 0 -20 7 0 26 29 33 37 9z m148 -22 c-3 -6 -11 -11 -17 -11 -6 0 -6
6 2 15 14 17 26 13 15 -4z m255 -5 c0 -7 -10 -16 -22 -20 -36 -9 -39 -7 -26
14 15 23 48 27 48 6z m-1740 -20 c0 -3 -4 -8 -10 -11 -5 -3 -10 -1 -10 4 0 6
5 11 10 11 6 0 10 -2 10 -4z m1674 -60 c-7 -21 -94 -126 -106 -126 -11 0 -28
62 -22 85 6 24 74 62 112 62 18 0 21 -3 16 -21z m-3407 -2 c-3 -3 -12 -4 -19
-1 -8 3 -5 6 6 6 11 1 17 -2 13 -5z m113 -80 c0 -2 -13 2 -30 11 -16 9 -30 18
-30 21 0 2 14 -2 30 -11 17 -9 30 -18 30 -21z m3116 1 c14 -57 -18 -68 -49
-16 -23 39 -22 41 13 41 23 0 31 -5 36 -25z m-1476 -50 c0 -28 -4 -35 -20 -35
-16 0 -20 7 -20 35 0 28 4 35 20 35 16 0 20 -7 20 -35z m90 0 c0 -30 -3 -35
-24 -35 -20 0 -25 6 -28 35 -4 33 -2 35 24 35 25 0 28 -3 28 -35z m744 19 c22
-9 10 -23 -14 -17 -11 3 -17 9 -14 14 6 11 8 11 28 3z m826 -34 c0 -5 -7 -10
-15 -10 -8 0 -15 5 -15 10 0 6 7 10 15 10 8 0 15 -4 15 -10z m-2375 -10 c-3
-5 -10 -10 -16 -10 -5 0 -9 5 -9 10 0 6 7 10 16 10 8 0 12 -4 9 -10z m69 -2
c21 17 21 17 2 -6 -15 -17 -17 -25 -8 -34 7 -7 12 -16 12 -20 0 -5 -13 7 -30
25 -32 37 -42 63 -13 34 16 -16 18 -16 37 1z m56 2 c0 -5 -4 -10 -9 -10 -6 0
-13 5 -16 10 -3 6 1 10 9 10 9 0 16 -4 16 -10z m1350 -5 c7 -9 10 -18 7 -22
-8 -7 -37 15 -37 28 0 14 16 11 30 -6z m90 5 c8 -5 12 -12 9 -15 -8 -8 -39 5
-39 16 0 11 11 11 30 -1z m1449 -52 c11 -6 16 -19 14 -29 -4 -13 -14 -17 -41
-15 -39 2 -51 18 -32 41 15 18 34 19 59 3z m-2604 -19 c0 -10 -11 -13 -42 -11
-22 2 -44 -1 -47 -7 -10 -16 5 -61 20 -61 8 0 14 -7 14 -15 0 -8 5 -15 10 -15
6 0 10 6 10 14 0 15 24 28 34 19 3 -4 6 -15 6 -25 0 -16 -9 -18 -87 -17 -80 1
-84 2 -49 11 36 10 38 12 33 42 -3 17 -3 43 0 56 4 22 9 25 51 24 34 0 47 -4
47 -15z m-514 -12 c-13 -13 -26 -3 -16 12 3 6 11 8 17 5 6 -4 6 -10 -1 -17z
m2799 3 c0 -5 -4 -10 -10 -10 -5 0 -10 5 -10 10 0 6 5 10 10 10 6 0 10 -4 10
-10z m-2710 -9 c0 -19 -29 -31 -67 -28 -23 1 -39 6 -36 10 2 4 20 5 39 1 26
-5 35 -2 40 10 6 17 24 22 24 7z m-183 -43 c-3 -8 -6 -5 -6 6 -1 11 2 17 5 13
3 -3 4 -12 1 -19z m296 -28 c3 -10 -1 -24 -7 -29 -10 -8 -11 -3 -8 19 5 35 8
37 15 10z m534 -27 c-3 -10 -5 -4 -5 12 0 17 2 24 5 18 2 -7 2 -21 0 -30z
m3080 -55 c-2 -13 -4 -3 -4 22 0 25 2 35 4 23 2 -13 2 -33 0 -45z m134 -9
c-13 -33 -20 -63 -18 -66 3 -2 18 17 33 44 34 59 33 58 40 50 7 -6 -62 -137
-106 -202 -14 -22 -52 -88 -83 -147 -65 -124 -135 -233 -171 -267 -30 -28 -48
-21 -21 9 10 11 13 20 7 20 -6 0 -17 -10 -23 -22 -11 -21 -53 -60 -93 -87 -21
-14 31 44 93 102 18 18 39 44 47 58 7 15 35 52 61 83 27 31 58 76 70 99 64
126 113 231 143 309 38 98 55 112 21 17z m-3614 39 c-3 -8 -6 -5 -6 6 -1 11 2
17 5 13 3 -3 4 -12 1 -19z m222 -50 l-3 -43 184 2 c116 1 179 -2 170 -7 -8 -6
-123 -10 -254 -10 -229 0 -292 5 -175 14 51 4 54 6 57 32 7 66 25 75 21 12z
m-41 -11 c3 -12 -3 -17 -21 -17 -31 0 -40 10 -25 27 15 18 42 12 46 -10z
m-158 -7 c0 -11 -2 -20 -4 -20 -2 0 -11 -3 -19 -6 -11 -4 -13 1 -10 20 6 31
33 35 33 6z m3457 -42 c-3 -8 -6 -5 -6 6 -1 11 2 17 5 13 3 -3 4 -12 1 -19z
m-3380 -74 c17 -14 16 -14 -4 -4 -13 6 -27 20 -33 33 -10 20 -10 21 4 4 8 -10
23 -25 33 -33z m3832 -50 c-6 -21 -18 -46 -26 -54 -9 -8 -14 -10 -12 -5 20 54
43 105 45 102 2 -2 -1 -21 -7 -43z m-5517 -68 c-2 -25 -8 -46 -12 -46 -4 0 -6
18 -3 40 5 37 4 40 -18 41 l-24 1 25 7 c14 5 27 7 30 5 3 -1 4 -23 2 -48z
m5065 32 c-3 -8 -6 -5 -6 6 -1 11 2 17 5 13 3 -3 4 -12 1 -19z m373 -121 c-21
-47 -49 -96 -60 -109 -27 -29 -81 -107 -121 -176 -58 -98 -40 -46 33 94 39 76
93 172 120 213 26 41 48 79 48 85 0 6 5 4 10 -5 7 -12 -1 -40 -30 -102z
m-4472 -224 c-21 -2 -57 -2 -80 0 -24 2 -7 4 37 4 44 0 63 -2 43 -4z m1145 0
c-100 -2 -266 -2 -370 0 -103 1 -21 2 182 2 204 0 288 -1 188 -2z m1525 0
c-208 -2 -548 -2 -755 0 -208 1 -38 2 377 2 415 0 585 -1 378 -2z m1077 -113
c5 0 4 -5 -2 -11 -9 -9 -23 -8 -57 2 -52 15 -42 31 13 18 20 -5 40 -9 46 -9z
m194 -46 c9 -8 -65 -2 -84 7 -13 6 -4 7 30 3 28 -4 52 -8 54 -10z m951 -39
c-41 -13 -76 -23 -78 -21 -5 6 110 44 133 45 11 0 -14 -11 -55 -24z m-3720 5
c-21 -13 -730 -13 -730 0 0 6 131 10 373 10 244 0 367 -4 357 -10z m1635 -1
c-624 -10 -1283 -10 -1290 1 -4 7 275 9 832 8 705 -2 777 -3 458 -9z m1985
-38 c-8 -5 -26 -12 -40 -15 l-25 -7 25 15 c14 9 32 15 40 15 13 0 13 -1 0 -8z
m-115 -46 c-27 -13 -54 -24 -60 -24 -5 1 13 11 40 24 28 13 55 24 60 24 6 -1
-12 -11 -40 -24z m-80 -35 c-3 -5 -12 -10 -18 -10 -7 0 -6 4 3 10 19 12 23 12
15 0z m-55 -31 c-25 -17 -96 -52 -87 -43 12 12 81 52 92 53 6 0 3 -4 -5 -10z
m-260 -173 c0 -2 -8 -10 -17 -17 -16 -13 -17 -12 -4 4 13 16 21 21 21 13z
m-236 -259 c-22 -24 -41 -42 -43 -40 -5 3 70 83 77 83 3 0 -13 -19 -34 -43z
m-109 -97 c-10 -11 -21 -18 -23 -15 -3 3 3 12 14 20 27 20 30 18 9 -5z"/>
<path d="M1753 3384 c4 -4 -1 -13 -11 -20 -16 -13 -16 -13 1 -14 9 0 17 -4 17
-9 0 -5 15 -9 34 -8 28 2 32 5 25 18 -5 9 -23 22 -41 28 -17 6 -29 8 -25 5z"/>
<path d="M1838 3353 c6 -2 18 -2 25 0 6 3 1 5 -13 5 -14 0 -19 -2 -12 -5z"/>
<path d="M3644 3704 c-18 -14 -18 -14 6 -3 31 14 36 19 24 19 -6 0 -19 -7 -30
-16z"/>
<path d="M3540 3650 c-9 -6 -10 -10 -3 -10 6 0 15 5 18 10 8 12 4 12 -15 0z"/>
<path d="M3038 3583 c7 -3 16 -2 19 1 4 3 -2 6 -13 5 -11 0 -14 -3 -6 -6z"/>
<path d="M2988 3573 c6 -2 18 -2 25 0 6 3 1 5 -13 5 -14 0 -19 -2 -12 -5z"/>
<path d="M2938 3563 c6 -2 18 -2 25 0 6 3 1 5 -13 5 -14 0 -19 -2 -12 -5z"/>
<path d="M3386 3562 c-2 -4 1 -17 7 -29 9 -16 16 -20 27 -13 13 8 13 10 -2 10
-11 0 -15 6 -11 20 5 19 -11 28 -21 12z"/>
<path d="M2888 3553 c7 -3 16 -2 19 1 4 3 -2 6 -13 5 -11 0 -14 -3 -6 -6z"/>
<path d="M2813 3543 c9 -2 25 -2 35 0 9 3 1 5 -18 5 -19 0 -27 -2 -17 -5z"/>
<path d="M2610 3530 c-20 -4 5 -5 55 -2 50 2 92 6 94 8 8 7 -113 2 -149 -6z"/>
<path d="M2513 3513 c9 -2 25 -2 35 0 9 3 1 5 -18 5 -19 0 -27 -2 -17 -5z"/>
<path d="M2553 3343 c9 -2 25 -2 35 0 9 3 1 5 -18 5 -19 0 -27 -2 -17 -5z"/>
<path d="M2428 3333 c17 -2 47 -2 65 0 17 2 3 4 -33 4 -36 0 -50 -2 -32 -4z"/>
<path d="M2350 3070 c8 -5 20 -10 25 -10 6 0 3 5 -5 10 -8 5 -19 10 -25 10 -5
0 -3 -5 5 -10z"/>
<path d="M2465 3030 c27 -12 43 -12 25 0 -8 5 -22 9 -30 9 -10 0 -8 -3 5 -9z"/>
<path d="M2525 3010 c11 -5 27 -9 35 -9 9 0 8 4 -5 9 -11 5 -27 9 -35 9 -9 0
-8 -4 5 -9z"/>
<path d="M2595 2990 c11 -5 27 -9 35 -9 9 0 8 4 -5 9 -11 5 -27 9 -35 9 -9 0
-8 -4 5 -9z"/>
<path d="M2673 2973 c11 -3 17 -14 17 -34 0 -19 5 -29 15 -29 8 0 15 8 15 18
0 10 5 23 12 30 9 9 8 12 -4 12 -8 0 -28 2 -44 4 -16 2 -21 1 -11 -1z"/>
<path d="M2780 2949 c73 -18 264 -39 343 -38 81 2 81 2 -33 10 -63 5 -162 15
-220 24 -114 16 -145 18 -90 4z"/>
<path d="M3658 2953 c7 -3 16 -2 19 1 4 3 -2 6 -13 5 -11 0 -14 -3 -6 -6z"/>
<path d="M3598 2943 c6 -2 18 -2 25 0 6 3 1 5 -13 5 -14 0 -19 -2 -12 -5z"/>
<path d="M3533 2933 c9 -2 23 -2 30 0 6 3 -1 5 -18 5 -16 0 -22 -2 -12 -5z"/>
<path d="M3473 2923 c9 -2 23 -2 30 0 6 3 -1 5 -18 5 -16 0 -22 -2 -12 -5z"/>
<path d="M3330 2916 c0 -2 11 -6 25 -8 14 -3 25 -1 25 3 0 5 -11 9 -25 9 -14
0 -25 -2 -25 -4z"/>
<path d="M3379 2871 c11 -7 11 -9 0 -14 -10 -4 -9 -6 4 -6 9 -1 17 6 17 14 0
8 -8 15 -17 15 -14 0 -15 -2 -4 -9z"/>
<path d="M2768 2323 c18 -2 45 -2 60 0 15 2 0 4 -33 4 -33 0 -45 -2 -27 -4z"/>
<path d="M2281 2094 c0 -11 3 -14 6 -6 3 7 2 16 -1 19 -3 4 -6 -2 -5 -13z"/>
<path d="M2310 2100 c8 -5 20 -10 25 -10 6 0 3 5 -5 10 -8 5 -19 10 -25 10 -5
0 -3 -5 5 -10z"/>
<path d="M2581 2024 c0 -11 3 -14 6 -6 3 7 2 16 -1 19 -3 4 -6 -2 -5 -13z"/>
<path d="M2730 1999 c0 -5 5 -7 10 -4 6 3 10 8 10 11 0 2 -4 4 -10 4 -5 0 -10
-5 -10 -11z"/>
<path d="M3236 1952 c-9 -15 20 -34 46 -30 35 5 29 32 -9 36 -17 2 -34 -1 -37
-6z"/>
<path d="M3230 1860 c-15 -27 -5 -40 31 -40 27 0 30 3 27 28 -4 35 -41 43 -58
12z"/>
<path d="M3936 3680 c75 -36 406 -119 504 -125 l55 -4 -53 8 c-90 15 -363 81
-440 107 -102 35 -113 37 -66 14z"/>
<path d="M3931 3615 c15 -16 37 -43 50 -58 33 -39 138 -114 231 -165 114 -62
108 -51 -9 17 -121 70 -137 82 -228 169 -38 37 -58 54 -44 37z"/>
<path d="M4510 3550 c-10 -6 -11 -10 -2 -10 6 0 12 -7 12 -15 0 -8 9 -15 20
-15 24 0 28 35 4 44 -19 7 -16 8 -34 -4z"/>
<path d="M4542 3300 c-7 -11 -8 -20 -3 -20 9 0 24 30 18 36 -1 2 -8 -6 -15
-16z"/>
<path d="M4578 3293 c-33 -8 -18 -21 22 -20 35 2 38 4 23 15 -9 6 -19 11 -22
11 -3 -1 -14 -3 -23 -6z"/>
<path d="M4570 3240 c0 -5 5 -10 10 -10 6 0 10 5 10 10 0 6 -4 10 -10 10 -5 0
-10 -4 -10 -10z"/>
<path d="M4642 3200 c0 -14 2 -19 5 -12 2 6 2 18 0 25 -3 6 -5 1 -5 -13z"/>
<path d="M5015 3142 c-13 -13 -19 -14 -22 -5 -3 10 -10 10 -24 2 -11 -5 -17
-14 -14 -18 5 -10 62 1 89 16 15 8 16 11 3 16 -8 3 -22 -2 -32 -11z"/>
<path d="M5332 3132 c-23 -15 -42 -30 -42 -34 0 -4 16 3 35 17 20 13 41 26 48
28 7 2 10 7 7 10 -3 3 -25 -6 -48 -21z"/>
<path d="M4873 3109 c9 -6 15 -15 12 -20 -4 -5 -10 -7 -15 -4 -5 3 -11 1 -15
-5 -3 -5 -2 -10 3 -10 16 0 22 -29 12 -56 -7 -18 -15 -24 -26 -20 -10 4 -14 1
-11 -6 2 -7 10 -12 18 -11 8 1 23 3 34 5 12 2 19 -2 17 -10 -1 -7 5 -15 13
-18 28 -11 62 6 81 41 10 19 23 35 27 35 5 0 6 7 3 16 -5 14 1 15 46 9 29 -3
61 -9 70 -11 12 -4 16 -1 13 8 -3 8 -25 14 -55 15 -63 3 -75 10 -58 31 11 14
10 15 -5 9 -44 -17 -65 -17 -106 -2 -52 18 -87 21 -58 4z"/>
<path d="M5184 3110 c-22 -9 -42 -30 -27 -30 4 0 17 7 27 15 11 8 28 13 37 10
10 -3 20 -1 24 5 7 12 -31 12 -61 0z"/>
<path d="M4185 3090 c-3 -6 1 -7 9 -4 18 7 21 14 7 14 -6 0 -13 -4 -16 -10z"/>
<path d="M4130 3064 c-14 -7 -20 -13 -14 -14 7 0 15 -11 18 -25 4 -14 13 -25
21 -25 20 0 23 11 10 47 -10 30 -12 30 -35 17z"/>
<path d="M4005 3030 c-13 -5 -14 -9 -5 -9 8 0 24 4 35 9 13 5 14 9 5 9 -8 0
-24 -4 -35 -9z"/>
<path d="M3915 3005 c-22 -8 -31 -13 -20 -13 11 0 36 6 55 13 45 17 18 17 -35
0z"/>
<path d="M4905 2930 c4 -6 11 -8 16 -5 14 9 11 15 -7 15 -8 0 -12 -5 -9 -10z"/>
<path d="M3853 2555 c0 -38 2 -53 4 -32 2 20 2 52 0 70 -2 17 -4 1 -4 -38z"/>
<path d="M3852 2450 c0 -14 2 -19 5 -12 2 6 2 18 0 25 -3 6 -5 1 -5 -13z"/>
<path d="M3851 2073 c1 -34 2 -35 9 -13 11 36 11 50 0 50 -5 0 -10 -17 -9 -37z"/>
<path d="M5179 3704 c-11 -14 -8 -15 26 -12 21 2 40 9 43 16 6 18 -53 15 -69
-4z"/>
<path d="M5511 3425 c0 -11 4 -29 9 -40 8 -18 9 -18 9 5 0 14 -4 32 -9 40 -8
12 -10 12 -9 -5z"/>
<path d="M5921 2624 c0 -11 3 -14 6 -6 3 7 2 16 -1 19 -3 4 -6 -2 -5 -13z"/>
<path d="M5969 2562 c6 -12 16 -24 22 -28 8 -4 8 -1 0 14 -6 12 -16 24 -22 28
-8 4 -8 1 0 -14z"/>
<path d="M5671 2544 c0 -11 3 -14 6 -6 3 7 2 16 -1 19 -3 4 -6 -2 -5 -13z"/>
<path d="M1475 3371 c-3 -5 -1 -12 5 -16 12 -7 30 2 30 16 0 12 -27 12 -35 0z"/>
<path d="M1410 3351 c0 -6 34 -30 44 -31 5 0 3 6 -3 13 -6 8 -8 17 -5 20 4 3
-3 5 -15 4 -11 -1 -21 -3 -21 -6z"/>
<path d="M1480 3331 c0 -5 9 -7 20 -4 11 3 20 7 20 9 0 2 -9 4 -20 4 -11 0
-20 -4 -20 -9z"/>
</g>
</svg>
