<?xml version="1.0" encoding="UTF-8"?>
<svg viewBox="0 0 315.47601 230.86984" xmlns="http://www.w3.org/2000/svg">
 <defs>
  <clipPath id="a">
   <path d="m1388.5 4235.1s178.55 301.54 445.04 303.91c266.5 2.33 558.43-112.31 558.43-112.31v1407s-277.41 112.67-558.43 112.28c-281.02-0.38-445.04-303.91-445.04-303.91v-1407"/>
  </clipPath>
  <clipPath id="b">
   <path d="m1388.5 4235.1s291.5 195.39 557.98 197.75c266.49 2.34 558.45-112.31 558.45-112.31v1407s-277.43 112.68-558.45 112.3c-281.01-0.39-557.98-197.77-557.98-197.77v-1407"/>
  </clipPath>
  <clipPath id="c">
   <path d="m1388.5 4235.1s307.49 109.94 588.16 112.28c280.67 2.35 588.17-112.28 588.17-112.28v1407s-292.19 112.69-588.17 112.3-588.16-112.3-588.16-112.3v-1407"/>
  </clipPath>
  <clipPath id="d">
   <path d="m1389 4235.1s-178.54 301.54-445.03 303.91c-266.49 2.33-558.43-112.31-558.43-112.31v1407s277.42 112.67 558.43 112.28c281.02-0.38 445.03-303.91 445.03-303.91v-1407"/>
  </clipPath>
  <clipPath id="e">
   <path d="m1389 4235.1s-291.49 195.39-557.99 197.75c-266.48 2.34-558.44-112.31-558.44-112.31v1407s277.42 112.68 558.44 112.3c281.03-0.39 557.99-197.77 557.99-197.77v-1407"/>
  </clipPath>
  <clipPath id="f">
   <path d="m1389 4235.1s-307.48 109.94-588.16 112.28c-280.67 2.35-588.16-112.28-588.16-112.28v1407s292.18 112.69 588.16 112.3 588.16-112.3 588.16-112.3v-1407"/>
  </clipPath>
  <clipPath id="g">
   <path d="m2019.5 5773.5c-312.25-0.4-578.25-100.59-578.25-100.59-28.92-10.88-76.23-10.88-105.14 0 0 0-266 100.19-578.24 100.59-317.58 0.42-578.68-100.26-578.68-100.26-28.828-11.13-52.411-45.49-52.411-76.39v-1397.4c0-30.9 23.684-47.34 52.637-36.54 0 0 277.29 103.38 578.46 100.86 294.34-2.46 575.31-46.41 575.31-46.41 30.53-4.78 80.47-4.78 110.99 0 0 0 280.97 43.95 575.33 46.41 301.14 2.52 578.44-100.86 578.44-100.86 28.96-10.8 52.64 5.64 52.64 36.54v1397.4c0 30.9-23.58 65.26-52.41 76.39 0 0-261.1 100.68-578.67 100.26"/>
  </clipPath>
 </defs>
 <g transform="translate(-216.55 -392.14)">
  <g transform="matrix(.125 0 0 -.12969 200.7 1162.5)" fill="#553203">
   <g clip-path="url(#g)" fill="#553203">
    <path d="m2019.5 5773.5c-312.25-0.4-578.25-100.59-578.25-100.59-28.92-10.88-76.23-10.88-105.14 0 0 0-266 100.19-578.24 100.59-317.58 0.42-578.68-100.26-578.68-100.26-28.828-11.13-52.411-45.49-52.411-76.39v-1397.4c0-30.9 23.684-47.34 52.637-36.54 0 0-587.4-519.72 578.46 100.86 1386.2-985.55-150.95-46.162 1261.6 0 301.14 2.52 578.44-100.86 578.44-100.86 28.96-10.8 52.64 5.64 52.64 36.54v1397.4c0 30.9-23.58 65.26-52.41 76.39 0 0-261.1 100.68-578.67 100.26" fill="#6c5353"/>
   </g>
  </g>
  <g transform="matrix(.125 0 0 -.125 200.7 1135.4)" fill="#e6e6e6">
   <g clip-path="url(#f)" fill="#e6e6e6">
    <path d="m1389 4235.1s-307.48 109.94-588.16 112.28c-280.67 2.35-588.16-112.28-588.16-112.28v1407s292.18 112.69 588.16 112.3 588.16-112.3 588.16-112.3v-1407" fill="#e6e6e6"/>
   </g>
  </g>
  <g transform="matrix(.125 0 0 -.125 200.7 1135.4)" fill="#808080">
   <g clip-path="url(#e)" fill="#808080">
    <path d="m1389 4235.1s-291.49 195.39-557.99 197.75c-266.48 2.34-558.44-112.31-558.44-112.31v1407s277.42 112.68 558.44 112.3c281.03-0.39 557.99-197.77 557.99-197.77v-1407" fill="#808080"/>
   </g>
  </g>
  <g transform="matrix(.125 0 0 -.125 200.7 1135.4)" fill="#e6e6e6" stroke="#000" stroke-width="16">
   <g clip-path="url(#d)" fill="#e6e6e6" stroke="#000" stroke-width="16">
    <path d="m1389 4235.1s-178.54 301.54-445.03 303.91c-266.49 2.33-558.43-112.31-558.43-112.31v1407s277.42 112.67 558.43 112.28c281.02-0.38 445.03-303.91 445.03-303.91v-1407" fill="#e6e6e6" stroke="#000" stroke-width="16"/>
   </g>
  </g>
  <g transform="matrix(.125 0 0 -.125 200.7 1135.4)" fill="#fff">
   <g clip-path="url(#c)" fill="#fff">
    <path d="m1388.5 4235.1s307.49 109.94 588.16 112.28c280.67 2.35 588.17-112.28 588.17-112.28v1407s-292.19 112.69-588.17 112.3-588.16-112.3-588.16-112.3v-1407" fill="#fff"/>
   </g>
  </g>
  <g transform="matrix(.125 0 0 -.125 200.7 1135.4)" fill="#fff" stroke="#000" stroke-width="8">
   <g clip-path="url(#b)" fill="#fff" stroke="#000" stroke-width="8">
    <path d="m1388.5 4235.1s291.5 195.39 557.98 197.75c266.49 2.34 558.45-112.31 558.45-112.31v1407s-277.43 112.68-558.45 112.3c-281.01-0.39-557.98-197.77-557.98-197.77v-1407" fill="#fff" stroke="#000" stroke-width="8"/>
   </g>
  </g>
  <path d="m374.25 607.52s19.621-28.024 52.754-30.941c33.182-2.92 70.736 8.02 70.736 8.02l1.9438-86.491-125.43 23.954v85.459" fill="#b3b3b3"/>
  <g transform="matrix(.125 0 0 -.125 200.7 1135.4)" fill="#fff" stroke="#000" stroke-width="16">
   <g clip-path="url(#a)" fill="#fff" stroke="#000" stroke-width="16">
    <path d="m1388.5 4235.1s178.55 301.54 445.04 303.91c266.5 2.33 558.43-112.31 558.43-112.31v1407s-277.41 112.67-558.43 112.28c-281.02-0.38-445.04-303.91-445.04-303.91v-1407" fill="#fff" stroke="#000" stroke-width="16"/>
   </g>
  </g>
 </g>
</svg>
